<svg aria-hidden="true" style="width:0;height:0;position:absolute;overflow:hidden" xmlns="http://www.w3.org/2000/svg"><defs><symbol id="icon-arrow-left" viewBox="0 0 32 32"><path d="M31.08 15H5.01l6-6-1.42-1.41L1.18 16l8.41 8.41L11.01 23l-6-6h26.07v-2z"/></symbol><symbol id="icon-arrow-right" viewBox="0 0 32 32"><path d="M22.5 7.59 21.07 9l6 6H1v2h26.08l-6 6 1.41 1.41L30.91 16l-8.42-8.41z"/></symbol><symbol id="icon-facebook" viewBox="0 0 32 32"><path fill="#f3c653" style="fill:var(--color1,#f3c653)" opacity=".7" d="M14.267 11.92v1.827H12.92V16h1.333v6.667h2.773V16h1.853s.173-1.08.267-2.267h-2.107v-1.507c0-.24.293-.533.6-.533h1.493v-2.36h-2.04c-2.907 0-2.84 2.253-2.84 2.587z"/><path fill="#f3c653" style="fill:var(--color1,#f3c653)" opacity=".7" d="M8 5.333A2.667 2.667 0 0 0 5.333 8v16A2.667 2.667 0 0 0 8 26.667h16A2.667 2.667 0 0 0 26.667 24V8A2.667 2.667 0 0 0 24 5.333H8zm0-2.666h16A5.333 5.333 0 0 1 29.333 8v16A5.333 5.333 0 0 1 24 29.333H8A5.333 5.333 0 0 1 2.667 24V8A5.333 5.333 0 0 1 8 2.667z"/></symbol><symbol id="icon-inst" viewBox="0 0 32 32"><path fill="#f3c653" style="fill:var(--color1,#f3c653)" opacity=".7" d="M9.947 1.427c1.573-.093 2.08-.093 6.053-.093s4.48.013 6.04.093a10.78 10.78 0 0 1 3.648.691l-.074-.025c.973.373 1.867.96 2.587 1.707a7.076 7.076 0 0 1 1.693 2.587c.36.933.613 2 .68 3.56.093 1.573.093 2.067.093 6.053s-.013 4.48-.093 6.053a10.747 10.747 0 0 1-.691 3.621l.025-.074a7.24 7.24 0 0 1-1.705 2.599l-.002.002a7.211 7.211 0 0 1-2.538 1.677l-.049.017c-.933.36-2 .613-3.56.68-1.573.08-2.067.093-6.053.093a106.384 106.384 0 0 1-6.283-.102l.229.008a10.744 10.744 0 0 1-3.634-.691l.074.025a7.232 7.232 0 0 1-2.585-1.705l-.002-.002a7.211 7.211 0 0 1-1.677-2.538l-.017-.049c-.36-.933-.613-2-.68-3.56a99.64 99.64 0 0 1-.092-6.13L1.333 16c0-3.987.013-4.48.093-6.04a10.78 10.78 0 0 1 .691-3.648l-.025.074a7.232 7.232 0 0 1 1.705-2.585l.002-.002a7.211 7.211 0 0 1 2.538-1.677l.049-.017c.933-.36 2-.613 3.56-.68zm11.973 2.64c-1.547-.08-2-.093-5.92-.093s-4.387.013-5.933.093a8.116 8.116 0 0 0-2.776.525l.056-.019c-.68.267-1.173.573-1.68 1.093a4.46 4.46 0 0 0-1.107 1.68c-.2.52-.427 1.293-.493 2.72-.08 1.56-.093 2.013-.093 5.933s.013 4.387.093 5.933c.067 1.427.293 2.2.507 2.72.227.64.6 1.2 1.093 1.68a4.363 4.363 0 0 0 1.68 1.093c.52.213 1.293.453 2.72.507 1.56.08 2.013.093 5.933.093s4.387-.013 5.933-.093a8.116 8.116 0 0 0 2.776-.525l-.056.019c.68-.267 1.173-.573 1.68-1.093a4.363 4.363 0 0 0 1.093-1.68c.213-.52.453-1.293.507-2.72.08-1.547.093-2.013.093-5.933s-.013-4.387-.093-5.933a8.116 8.116 0 0 0-.525-2.776l.019.056c-.267-.68-.573-1.173-1.093-1.68a4.555 4.555 0 0 0-1.649-1.096l-.031-.011a7.944 7.944 0 0 0-2.716-.493h-.004zM14.133 20.52a4.811 4.811 0 0 0 2.065.457 4.893 4.893 0 0 0 1.728-9.472l-.034-.011a4.893 4.893 0 0 0-3.776 9.014l.029.013zm-3.466-9.853a7.542 7.542 0 1 1 10.666 10.666 7.542 7.542 0 1 1-10.666-10.666zM25.2 9.587a1.787 1.787 0 1 0-2.44-2.601l-.001.001a1.787 1.787 0 1 0 2.453 2.599l-.001.001z"/></symbol><symbol id="icon-location" viewBox="0 0 32 32"><path fill="#c79002" style="fill:var(--color2,#c79002)" d="M16 3.213c-4.413 0-8 3.573-8 7.987 0 7.64 8 17.6 8 17.6s8-9.96 8-17.6a7.987 7.987 0 0 0-7.987-7.987h-.014H16zm0 12.4a4.32 4.32 0 1 1 0-8.64 4.32 4.32 0 1 1 0 8.64z"/></symbol><symbol id="icon-phone" viewBox="0 0 32 32"><path fill="#f3c653" style="fill:var(--color1,#f3c653)" d="M21 2.667a3 3 0 0 1 3 3v20.667a3 3 0 0 1-3 3H11a3 3 0 0 1-3-3V5.667a3 3 0 0 1 3-3h10zm0 2H11a1 1 0 0 0-1 1v20.667c0 .547.453 1 1 1h10a1 1 0 0 0 1-1V5.667a1 1 0 0 0-1-1zm-3.333 18.666a1 1 0 0 1 0 2h-3.333a1 1 0 0 1 0-2h3.333z"/></symbol><symbol id="icon-telegram" viewBox="0 0 32 32"><path fill="#f3c653" style="fill:var(--color1,#f3c653)" opacity=".7" d="M26.067 4c-.32.013-.627.093-.933.213L21.427 5.76 3.614 13.28s-.36.12-.733.373a1.82 1.82 0 0 0-.587.56 1.68 1.68 0 0 0-.28 1.12c.093.72.56 1.147.893 1.387s.667.36.667.36l4.893 1.64 1.787 5.84c.187.573.36.933.573 1.2.107.133.227.267.387.36l.24.107-.053-.013.04.013.12.027c.773.24 1.387-.24 1.387-.24l.04-.04 2.88-2.613 4.84 3.707.107.04c1 .44 2.027.2 2.56-.24.547-.427.76-.987.76-.987l.04-.093 3.733-19.133c.107-.467.133-.907 0-1.333a1.817 1.817 0 0 0-1.844-1.334h.004zm-.094 2.04-.027.187-3.693 18.933c-.013.027-.04.093-.12.147-.08.067-.133.107-.467-.027l-5.907-4.533L12.186 24l.747-4.787 9.667-9c.4-.373.267-.453.267-.453.027-.453-.613-.133-.613-.133l-12.173 7.547v-.013l-5.853-1.973.027-.013.04-.013.027-.013 17.893-7.533c1.2-.52 2.427-1.027 3.653-1.533.08-.027.04-.027.107-.027z"/></symbol></defs></svg>