<!-- Generated by IcoMoon.io -->
<svg version="1.1" xmlns="http://www.w3.org/2000/svg" width="32" height="32" viewBox="0 0 32 32">
<title>icon_facebook</title>
<path fill="#f3c653" opacity="0.7" d="M14.267 11.92v1.827h-1.347v2.253h1.333v6.667h2.773v-6.667h1.853s0.173-1.080 0.267-2.267h-2.107v-1.507c0-0.24 0.293-0.533 0.6-0.533h1.493v-2.36h-2.040c-2.907 0-2.84 2.253-2.84 2.587z"></path>
<path fill="#f3c653" opacity="0.7" d="M8 5.333c-1.473 0-2.667 1.194-2.667 2.667v0 16c0 1.473 1.194 2.667 2.667 2.667v0h16c1.473 0 2.667-1.194 2.667-2.667v0-16c0-1.473-1.194-2.667-2.667-2.667v0h-16zM8 2.667h16c2.946 0 5.333 2.388 5.333 5.333v0 16c0 2.946-2.388 5.333-5.333 5.333v0h-16c-2.946 0-5.333-2.388-5.333-5.333v0-16c0-2.946 2.388-5.333 5.333-5.333v0z"></path>
</svg>
