<!-- Generated by IcoMoon.io -->
<svg version="1.1" xmlns="http://www.w3.org/2000/svg" width="32" height="32" viewBox="0 0 32 32">
<title>icon_inst</title>
<path fill="#f3c653" opacity="0.7" d="M9.947 1.427c1.573-0.093 2.080-0.093 6.053-0.093s4.48 0.013 6.040 0.093c1.288 0.020 2.513 0.263 3.648 0.691l-0.074-0.025c0.973 0.373 1.867 0.96 2.587 1.707 0.747 0.733 1.333 1.613 1.693 2.587 0.36 0.933 0.613 2 0.68 3.56 0.093 1.573 0.093 2.067 0.093 6.053s-0.013 4.48-0.093 6.053c-0.023 1.279-0.265 2.495-0.691 3.621l0.025-0.074c-0.393 1.018-0.974 1.886-1.705 2.599l-0.002 0.002c-0.712 0.727-1.574 1.302-2.538 1.677l-0.049 0.017c-0.933 0.36-2 0.613-3.56 0.68-1.573 0.080-2.067 0.093-6.053 0.093-0.42 0.006-0.915 0.009-1.412 0.009-1.633 0-3.256-0.037-4.871-0.111l0.229 0.008c-1.284-0.021-2.504-0.264-3.634-0.691l0.074 0.025c-1.013-0.395-1.876-0.975-2.585-1.705l-0.002-0.002c-0.727-0.712-1.302-1.574-1.677-2.538l-0.017-0.049c-0.36-0.933-0.613-2-0.68-3.56-0.066-1.38-0.103-2.998-0.103-4.624 0-0.503 0.004-1.005 0.011-1.506l-0.001 0.076c0-3.987 0.013-4.48 0.093-6.040 0.020-1.288 0.263-2.513 0.691-3.648l-0.025 0.074c0.395-1.013 0.975-1.876 1.705-2.585l0.002-0.002c0.712-0.727 1.574-1.302 2.538-1.677l0.049-0.017c0.933-0.36 2-0.613 3.56-0.68zM21.92 4.067c-1.547-0.080-2-0.093-5.92-0.093s-4.387 0.013-5.933 0.093c-0.98 0.013-1.913 0.198-2.776 0.525l0.056-0.019c-0.68 0.267-1.173 0.573-1.68 1.093-0.493 0.467-0.867 1.040-1.107 1.68-0.2 0.52-0.427 1.293-0.493 2.72-0.080 1.56-0.093 2.013-0.093 5.933s0.013 4.387 0.093 5.933c0.067 1.427 0.293 2.2 0.507 2.72 0.227 0.64 0.6 1.2 1.093 1.68 0.467 0.493 1.053 0.867 1.68 1.093 0.52 0.213 1.293 0.453 2.72 0.507 1.56 0.080 2.013 0.093 5.933 0.093s4.387-0.013 5.933-0.093c0.98-0.013 1.913-0.198 2.776-0.525l-0.056 0.019c0.68-0.267 1.173-0.573 1.68-1.093 0.493-0.467 0.867-1.053 1.093-1.68 0.213-0.52 0.453-1.293 0.507-2.72 0.080-1.547 0.093-2.013 0.093-5.933s-0.013-4.387-0.093-5.933c-0.013-0.98-0.198-1.913-0.525-2.776l0.019 0.056c-0.267-0.68-0.573-1.173-1.093-1.68-0.46-0.478-1.021-0.855-1.649-1.096l-0.031-0.011c-0.808-0.305-1.742-0.485-2.716-0.493l-0.004-0zM14.133 20.52c0.605 0.289 1.315 0.457 2.065 0.457 2.703 0 4.893-2.191 4.893-4.893 0-2.094-1.315-3.881-3.165-4.579l-0.034-0.011c-0.488-0.179-1.050-0.282-1.638-0.282-2.703 0-4.893 2.191-4.893 4.893 0 1.936 1.124 3.609 2.755 4.403l0.029 0.013zM10.667 10.667c1.365-1.365 3.251-2.209 5.333-2.209 4.166 0 7.542 3.377 7.542 7.542 0 2.083-0.844 3.968-2.209 5.333v0c-1.365 1.365-3.251 2.209-5.333 2.209-4.166 0-7.542-3.377-7.542-7.542 0-2.083 0.844-3.968 2.209-5.333v0zM25.2 9.587c0.4-0.33 0.652-0.826 0.652-1.38 0-0.987-0.8-1.787-1.787-1.787-0.515 0-0.979 0.218-1.305 0.566l-0.001 0.001c-0.346 0.327-0.561 0.788-0.561 1.3 0 0.987 0.8 1.787 1.787 1.787 0.475 0 0.907-0.186 1.227-0.488l-0.001 0.001z"></path>
</svg>
