<!-- Generated by IcoMoon.io -->
<svg version="1.1" xmlns="http://www.w3.org/2000/svg" width="32" height="32" viewBox="0 0 32 32">
<title>icon_telegram</title>
<path fill="#f3c653" opacity="0.7" d="M26.067 4c-0.32 0.013-0.627 0.093-0.933 0.213l-3.707 1.547-17.813 7.52s-0.36 0.12-0.733 0.373c-0.24 0.147-0.44 0.333-0.587 0.56-0.187 0.267-0.333 0.693-0.28 1.12 0.093 0.72 0.56 1.147 0.893 1.387s0.667 0.36 0.667 0.36l4.893 1.64 1.787 5.84c0.187 0.573 0.36 0.933 0.573 1.2 0.107 0.133 0.227 0.267 0.387 0.36l0.24 0.107-0.053-0.013 0.040 0.013 0.12 0.027c0.773 0.24 1.387-0.24 1.387-0.24l0.040-0.040 2.88-2.613 4.84 3.707 0.107 0.040c1 0.44 2.027 0.2 2.56-0.24 0.547-0.427 0.76-0.987 0.76-0.987l0.040-0.093 3.733-19.133c0.107-0.467 0.133-0.907 0-1.333-0.217-0.776-0.918-1.336-1.749-1.336-0.032 0-0.064 0.001-0.095 0.002l0.004-0zM25.973 6.040l-0.027 0.187-3.693 18.933c-0.013 0.027-0.040 0.093-0.12 0.147-0.080 0.067-0.133 0.107-0.467-0.027l-5.907-4.533-3.573 3.253 0.747-4.787 9.667-9c0.4-0.373 0.267-0.453 0.267-0.453 0.027-0.453-0.613-0.133-0.613-0.133l-12.173 7.547v-0.013l-5.853-1.973 0.027-0.013 0.040-0.013 0.027-0.013 17.893-7.533c1.2-0.52 2.427-1.027 3.653-1.533 0.080-0.027 0.040-0.027 0.107-0.027z"></path>
</svg>
