<svg aria-hidden="true" style="position: absolute; width: 0; height: 0; overflow: hidden;" version="1.1" xmlns="http://www.w3.org/2000/svg" xmlns:xlink="http://www.w3.org/1999/xlink">
<defs>
<symbol id="icon-arrow-left" viewBox="0 0 32 32">
<path d="M31.080 15h-26.070l6-6-1.42-1.41-8.41 8.41 8.41 8.41 1.42-1.41-6-6h26.070v-2z"></path>
</symbol>
<symbol id="icon-arrow-right" viewBox="0 0 32 32">
<path d="M22.5 7.59l-1.43 1.41 6 6h-26.070v2h26.080l-6 6 1.41 1.41 8.42-8.41-8.42-8.41z"></path>
</symbol>
<symbol id="icon-facebook" viewBox="0 0 32 32">
<path fill="#f3c653" style="fill: var(--color1, #f3c653)" opacity="0.7" d="M14.267 11.92v1.827h-1.347v2.253h1.333v6.667h2.773v-6.667h1.853s0.173-1.080 0.267-2.267h-2.107v-1.507c0-0.24 0.293-0.533 0.6-0.533h1.493v-2.36h-2.040c-2.907 0-2.84 2.253-2.84 2.587z"></path>
<path fill="#f3c653" style="fill: var(--color1, #f3c653)" opacity="0.7" d="M8 5.333c-1.473 0-2.667 1.194-2.667 2.667v0 16c0 1.473 1.194 2.667 2.667 2.667v0h16c1.473 0 2.667-1.194 2.667-2.667v0-16c0-1.473-1.194-2.667-2.667-2.667v0h-16zM8 2.667h16c2.946 0 5.333 2.388 5.333 5.333v0 16c0 2.946-2.388 5.333-5.333 5.333v0h-16c-2.946 0-5.333-2.388-5.333-5.333v0-16c0-2.946 2.388-5.333 5.333-5.333v0z"></path>
</symbol>
<symbol id="icon-inst" viewBox="0 0 32 32">
<path fill="#f3c653" style="fill: var(--color1, #f3c653)" opacity="0.7" d="M9.947 1.427c1.573-0.093 2.080-0.093 6.053-0.093s4.48 0.013 6.040 0.093c1.288 0.020 2.513 0.263 3.648 0.691l-0.074-0.025c0.973 0.373 1.867 0.96 2.587 1.707 0.747 0.733 1.333 1.613 1.693 2.587 0.36 0.933 0.613 2 0.68 3.56 0.093 1.573 0.093 2.067 0.093 6.053s-0.013 4.48-0.093 6.053c-0.023 1.279-0.265 2.495-0.691 3.621l0.025-0.074c-0.393 1.018-0.974 1.886-1.705 2.599l-0.002 0.002c-0.712 0.727-1.574 1.302-2.538 1.677l-0.049 0.017c-0.933 0.36-2 0.613-3.56 0.68-1.573 0.080-2.067 0.093-6.053 0.093-0.42 0.006-0.915 0.009-1.412 0.009-1.633 0-3.256-0.037-4.871-0.111l0.229 0.008c-1.284-0.021-2.504-0.264-3.634-0.691l0.074 0.025c-1.013-0.395-1.876-0.975-2.585-1.705l-0.002-0.002c-0.727-0.712-1.302-1.574-1.677-2.538l-0.017-0.049c-0.36-0.933-0.613-2-0.68-3.56-0.066-1.38-0.103-2.998-0.103-4.624 0-0.503 0.004-1.005 0.011-1.506l-0.001 0.076c0-3.987 0.013-4.48 0.093-6.040 0.020-1.288 0.263-2.513 0.691-3.648l-0.025 0.074c0.395-1.013 0.975-1.876 1.705-2.585l0.002-0.002c0.712-0.727 1.574-1.302 2.538-1.677l0.049-0.017c0.933-0.36 2-0.613 3.56-0.68zM21.92 4.067c-1.547-0.080-2-0.093-5.92-0.093s-4.387 0.013-5.933 0.093c-0.98 0.013-1.913 0.198-2.776 0.525l0.056-0.019c-0.68 0.267-1.173 0.573-1.68 1.093-0.493 0.467-0.867 1.040-1.107 1.68-0.2 0.52-0.427 1.293-0.493 2.72-0.080 1.56-0.093 2.013-0.093 5.933s0.013 4.387 0.093 5.933c0.067 1.427 0.293 2.2 0.507 2.72 0.227 0.64 0.6 1.2 1.093 1.68 0.467 0.493 1.053 0.867 1.68 1.093 0.52 0.213 1.293 0.453 2.72 0.507 1.56 0.080 2.013 0.093 5.933 0.093s4.387-0.013 5.933-0.093c0.98-0.013 1.913-0.198 2.776-0.525l-0.056 0.019c0.68-0.267 1.173-0.573 1.68-1.093 0.493-0.467 0.867-1.053 1.093-1.68 0.213-0.52 0.453-1.293 0.507-2.72 0.080-1.547 0.093-2.013 0.093-5.933s-0.013-4.387-0.093-5.933c-0.013-0.98-0.198-1.913-0.525-2.776l0.019 0.056c-0.267-0.68-0.573-1.173-1.093-1.68-0.46-0.478-1.021-0.855-1.649-1.096l-0.031-0.011c-0.808-0.305-1.742-0.485-2.716-0.493l-0.004-0zM14.133 20.52c0.605 0.289 1.315 0.457 2.065 0.457 2.703 0 4.893-2.191 4.893-4.893 0-2.094-1.315-3.881-3.165-4.579l-0.034-0.011c-0.488-0.179-1.050-0.282-1.638-0.282-2.703 0-4.893 2.191-4.893 4.893 0 1.936 1.124 3.609 2.755 4.403l0.029 0.013zM10.667 10.667c1.365-1.365 3.251-2.209 5.333-2.209 4.166 0 7.542 3.377 7.542 7.542 0 2.083-0.844 3.968-2.209 5.333v0c-1.365 1.365-3.251 2.209-5.333 2.209-4.166 0-7.542-3.377-7.542-7.542 0-2.083 0.844-3.968 2.209-5.333v0zM25.2 9.587c0.4-0.33 0.652-0.826 0.652-1.38 0-0.987-0.8-1.787-1.787-1.787-0.515 0-0.979 0.218-1.305 0.566l-0.001 0.001c-0.346 0.327-0.561 0.788-0.561 1.3 0 0.987 0.8 1.787 1.787 1.787 0.475 0 0.907-0.186 1.227-0.488l-0.001 0.001z"></path>
</symbol>
<symbol id="icon-location" viewBox="0 0 32 32">
<path fill="#c79002" style="fill: var(--color2, #c79002)" d="M16 3.213c-4.413 0-8 3.573-8 7.987 0 7.64 8 17.6 8 17.6s8-9.96 8-17.6c0 0 0 0 0 0 0-4.411-3.576-7.987-7.987-7.987-0.005 0-0.009 0-0.014 0h0.001zM16 15.613c-2.386 0-4.32-1.934-4.32-4.32s1.934-4.32 4.32-4.32v0c2.386 0 4.32 1.934 4.32 4.32s-1.934 4.32-4.32 4.32v0z"></path>
</symbol>
<symbol id="icon-phone" viewBox="0 0 32 32">
<path fill="#f3c653" style="fill: var(--color1, #f3c653)" d="M21 2.667c1.657 0 3 1.343 3 3v0 20.667c0 1.657-1.343 3-3 3v0h-10c-1.657 0-3-1.343-3-3v0-20.667c0-1.657 1.343-3 3-3v0h10zM21 4.667h-10c-0.552 0-1 0.448-1 1v0 20.667c0 0.547 0.453 1 1 1h10c0.552 0 1-0.448 1-1v0-20.667c0-0.552-0.448-1-1-1v0zM17.667 23.333c0.552 0 1 0.448 1 1s-0.448 1-1 1v0h-3.333c-0.552 0-1-0.448-1-1s0.448-1 1-1v0h3.333z"></path>
</symbol>
<symbol id="icon-telegram" viewBox="0 0 32 32">
<path fill="#f3c653" style="fill: var(--color1, #f3c653)" opacity="0.7" d="M26.067 4c-0.32 0.013-0.627 0.093-0.933 0.213l-3.707 1.547-17.813 7.52s-0.36 0.12-0.733 0.373c-0.24 0.147-0.44 0.333-0.587 0.56-0.187 0.267-0.333 0.693-0.28 1.12 0.093 0.72 0.56 1.147 0.893 1.387s0.667 0.36 0.667 0.36l4.893 1.64 1.787 5.84c0.187 0.573 0.36 0.933 0.573 1.2 0.107 0.133 0.227 0.267 0.387 0.36l0.24 0.107-0.053-0.013 0.040 0.013 0.12 0.027c0.773 0.24 1.387-0.24 1.387-0.24l0.040-0.040 2.88-2.613 4.84 3.707 0.107 0.040c1 0.44 2.027 0.2 2.56-0.24 0.547-0.427 0.76-0.987 0.76-0.987l0.040-0.093 3.733-19.133c0.107-0.467 0.133-0.907 0-1.333-0.217-0.776-0.918-1.336-1.749-1.336-0.032 0-0.064 0.001-0.095 0.002l0.004-0zM25.973 6.040l-0.027 0.187-3.693 18.933c-0.013 0.027-0.040 0.093-0.12 0.147-0.080 0.067-0.133 0.107-0.467-0.027l-5.907-4.533-3.573 3.253 0.747-4.787 9.667-9c0.4-0.373 0.267-0.453 0.267-0.453 0.027-0.453-0.613-0.133-0.613-0.133l-12.173 7.547v-0.013l-5.853-1.973 0.027-0.013 0.040-0.013 0.027-0.013 17.893-7.533c1.2-0.52 2.427-1.027 3.653-1.533 0.080-0.027 0.040-0.027 0.107-0.027z"></path>
</symbol>
</defs>
</svg>
